<svg version="1.1" xmlns="http://www.w3.org/2000/svg" xmlns:xlink="http://www.w3.org/1999/xlink" width="21.41193" height="20.00269" viewBox="0,0,21.41193,20.00269"><g transform="translate(-233.65057,-166.125)"><g data-paper-data="{&quot;isPaintingLayer&quot;:true}" fill-rule="nonzero" stroke-linejoin="miter" stroke-miterlimit="10" stroke-dasharray="" stroke-dashoffset="0" style="mix-blend-mode: normal"><path d="M251.47685,169.78148c0.46852,-0.58565 1.05417,-0.11713 1.05417,-0.11713l0.83246,0.76076c0.04077,0.64844 0.05346,1.30867 -0.06118,1.94819c-0.57112,3.18603 -3.66492,1.96336 -5.36499,0.43555c-0.24702,-0.22199 -1.32104,-1.60567 -1.87676,-1.15821c-0.76151,0.61316 -1.33432,1.95585 -1.87402,2.76539c0,0 -0.41603,0.62404 -1.04006,0.20801c-0.62404,-0.41603 -0.20801,-1.04006 -0.20801,-1.04006c0.85267,-1.27901 1.74721,-3.55146 3.5577,-3.45668c2.49395,0.13056 4.65528,5.31915 5.51536,0.94759l-0.41754,-0.23924c0,0 -0.58565,-0.46852 -0.11713,-1.05417z" fill="#da9e00" stroke="none" stroke-width="0.5" stroke-linecap="butt"/><path d="M233.65057,180c0,-3.38423 2.84273,-6.12769 6.34943,-6.12769c3.50668,0 6.34943,2.74347 6.34943,6.12769c0,3.38423 -2.84273,6.12769 -6.34943,6.12769c-3.50668,0 -6.34943,-2.74347 -6.34943,-6.12769z" fill="#000000" stroke="none" stroke-width="0" stroke-linecap="butt"/><path d="M241.82533,175.21152l0.94666,-1.61848l1.40268,0.82044l-0.94666,1.61848z" fill="#000000" stroke="#000000" stroke-width="2" stroke-linecap="butt"/><path d="M250.9375,170.625h-2" fill="none" stroke="#ce3200" stroke-width="0.5" stroke-linecap="round"/><path d="M251.0625,168.875l-1.625,-0.625" fill="none" stroke="#ce3200" stroke-width="0.5" stroke-linecap="round"/><path d="M251.9375,168.875l1,-2.5" fill="none" stroke="#ce3200" stroke-width="0.5" stroke-linecap="round"/><path d="M253.1875,169.5l1.625,-0.75" fill="none" stroke="#ce3200" stroke-width="0.5" stroke-linecap="round"/></g></g></svg>