<svg version="1.1" xmlns="http://www.w3.org/2000/svg" xmlns:xlink="http://www.w3.org/1999/xlink" width="60.1406" height="42.34109" viewBox="0,0,60.1406,42.34109"><defs><radialGradient cx="250.56496" cy="179.34589" r="15.8359" gradientUnits="userSpaceOnUse" id="color-1"><stop offset="0" stop-color="#995900"/><stop offset="1" stop-color="#663b00"/></radialGradient><radialGradient cx="238.88273" cy="187.51349" r="8.0398" gradientUnits="userSpaceOnUse" id="color-2"><stop offset="0" stop-color="#006622"/><stop offset="1" stop-color="#009933"/></radialGradient><radialGradient cx="214.3068" cy="175.50626" r="17.04582" gradientUnits="userSpaceOnUse" id="color-3"><stop offset="0" stop-color="#006622"/><stop offset="1" stop-color="#009933"/></radialGradient><radialGradient cx="236.20228" cy="171.17945" r="11.25569" gradientUnits="userSpaceOnUse" id="color-4"><stop offset="0" stop-color="#006622"/><stop offset="1" stop-color="#009933"/></radialGradient><radialGradient cx="234.32162" cy="188.23077" r="11.37183" gradientUnits="userSpaceOnUse" id="color-5"><stop offset="0" stop-color="#006622"/><stop offset="1" stop-color="#009933"/></radialGradient><radialGradient cx="237.21494" cy="181.16139" r="11.25569" gradientUnits="userSpaceOnUse" id="color-6"><stop offset="0" stop-color="#006622"/><stop offset="1" stop-color="#009933"/></radialGradient><radialGradient cx="229.11366" cy="182.02939" r="11.25569" gradientUnits="userSpaceOnUse" id="color-7"><stop offset="0" stop-color="#006622"/><stop offset="1" stop-color="#009933"/></radialGradient><radialGradient cx="232.00697" cy="172.19211" r="11.25569" gradientUnits="userSpaceOnUse" id="color-8"><stop offset="0" stop-color="#006622"/><stop offset="1" stop-color="#009933"/></radialGradient><radialGradient cx="228.53517" cy="190.28115" r="11.26128" gradientUnits="userSpaceOnUse" id="color-9"><stop offset="0" stop-color="#006622"/><stop offset="1" stop-color="#009933"/></radialGradient><radialGradient cx="220.04129" cy="190.14522" r="15.7412" gradientUnits="userSpaceOnUse" id="color-10"><stop offset="0" stop-color="#006622"/><stop offset="1" stop-color="#009933"/></radialGradient><radialGradient cx="221.63536" cy="172.47757" r="14.22472" gradientUnits="userSpaceOnUse" id="color-11"><stop offset="0" stop-color="#006622"/><stop offset="1" stop-color="#009933"/></radialGradient><radialGradient cx="226.92912" cy="167.8213" r="12.284" gradientUnits="userSpaceOnUse" id="color-12"><stop offset="0" stop-color="#006622"/><stop offset="1" stop-color="#009933"/></radialGradient><radialGradient cx="223.02314" cy="181.60795" r="12.284" gradientUnits="userSpaceOnUse" id="color-13"><stop offset="0" stop-color="#006622"/><stop offset="1" stop-color="#009933"/></radialGradient><radialGradient cx="240.07854" cy="174.06163" r="6.51141" gradientUnits="userSpaceOnUse" id="color-14"><stop offset="0" stop-color="#006622"/><stop offset="1" stop-color="#009933"/></radialGradient><radialGradient cx="214.82939" cy="188.61501" r="7.09343" gradientUnits="userSpaceOnUse" id="color-15"><stop offset="0" stop-color="#006622"/><stop offset="1" stop-color="#009933"/></radialGradient></defs><g transform="translate(-210.22039,-158.82945)"><g data-paper-data="{&quot;isPaintingLayer&quot;:true}" fill-rule="nonzero" stroke-linejoin="miter" stroke-miterlimit="10" stroke-dasharray="" stroke-dashoffset="0" style="mix-blend-mode: normal"><path d="M230.71748,183.57523v-8.20591h39.06213l0,8.20591z" fill="url(#color-1)" stroke="#995900" stroke-width="1.16276" stroke-linecap="butt"/><path d="M237.30272,188.20902c-0.13321,-1.78251 0.2779,-3.9126 0.72677,-5.25944c0.44901,-1.34684 1.06902,-2.18052 1.7532,-2.18052c0.68418,0 1.58397,1.1104 1.7532,2.18052c0.14938,0.95708 -0.77668,1.83292 -0.68826,2.77943c0.03923,0.47719 0.71699,0.28253 0.93362,0.72333c0.28974,0.44681 0.49427,1.12159 0.48142,1.75668c-0.02685,1.31602 -0.08229,2.5333 -0.58352,3.40997c-0.5618,1.16352 -1.4801,2.17328 -2.37787,2.27331c-0.40992,0.03327 -0.4105,-1.02672 -0.61998,-1.54998c-0.52577,-1.32349 -1.26247,-2.57155 -1.37858,-4.1333z" fill="url(#color-2)" stroke="none" stroke-width="0.61824" stroke-linecap="round"/><path d="M210.22508,179.79832c-0.10682,-1.24178 1.64491,-0.96206 1.77615,-2.32073c0.18569,-1.96034 -1.63785,-4.1013 -1.05814,-5.69627c0.9541,-2.61521 3.30593,-3.17093 4.65633,-4.93634c1.05056,-1.39076 1.8462,-4.45197 3.02777,-4.45197c1.1816,0 2.73554,2.26712 3.0278,4.45197c0.25797,1.95403 -1.34131,3.74224 -1.18863,5.67475c0.06776,0.9743 1.23825,0.57681 1.61239,1.47683c0.50034,0.91223 0.85356,2.28989 0.83139,3.58652c-0.04635,2.68696 -0.23129,4.96464 -1.00774,6.96213c-0.63867,1.64349 -1.68874,2.6262 -2.75872,2.84815c-2.11828,0.4401 -4.51398,1.07301 -6.4244,-0.42196c-1.45117,-1.36753 -2.26995,-4.5684 -2.49418,-7.17308z" fill="url(#color-3)" stroke="none" stroke-width="1.20104" stroke-linecap="round"/><path d="M233.99022,172.15317c-0.18647,-2.49548 0.38906,-5.47762 1.01749,-7.3632c0.62863,-1.88557 1.49663,-3.05274 2.45449,-3.05274c0.95786,0 2.21758,1.55458 2.45449,3.05274c0.20913,1.33989 -1.08734,2.56608 -0.96356,3.89122c0.05492,0.66807 1.00381,0.39552 1.30708,1.01266c0.40561,0.62553 0.69194,1.5702 0.67397,2.45932c-0.03758,1.84246 -0.11518,3.54663 -0.81693,4.77397c-0.78652,1.62894 -2.07216,3.04261 -3.32902,3.18265c-0.57389,0.04658 -0.57473,-1.4374 -0.86799,-2.16999c-0.73606,-1.85288 -1.76744,-3.60015 -1.93001,-5.78663z" fill="url(#color-4)" stroke="none" stroke-width="0.86553" stroke-linecap="round"/><path d="M232.10957,189.07907c-0.18647,-2.49548 0.38906,-5.47762 1.01749,-7.3632c0.62863,-1.88557 1.49663,-3.05274 2.45449,-3.05274c0.95786,0 2.21758,1.55458 2.45449,3.05274c0.20913,1.33989 -1.08734,2.56608 -0.96356,3.89122c0.05492,0.66807 1.00381,0.39552 1.30708,1.01266c0.40561,0.62553 0.69194,1.5702 0.67397,2.45932c-0.03758,1.84246 -0.35107,3.2842 -0.81693,4.77397c-0.40767,1.28521 -0.53633,3.17686 -1.37858,3.39965c-1.13699,0.25461 -2.21185,-1.27103 -2.81844,-2.38699c-0.90781,-1.69519 -1.76744,-3.60015 -1.93001,-5.78663z" fill="url(#color-5)" stroke="none" stroke-width="0.86553" stroke-linecap="round"/><path d="M235.00288,182.13511c-0.18647,-2.49548 0.38906,-5.47762 1.01749,-7.3632c0.62863,-1.88557 1.49663,-3.05274 2.45449,-3.05274c0.95786,0 2.21758,1.55458 2.45449,3.05274c0.20913,1.33989 -1.08734,2.56608 -0.96356,3.89122c0.05492,0.66807 1.00381,0.39552 1.30708,1.01266c0.40561,0.62553 0.69194,1.5702 0.67397,2.45932c-0.03758,1.84246 -0.11518,3.54663 -0.81693,4.77397c-0.78652,1.62894 -2.07216,3.04261 -3.32902,3.18265c-0.57389,0.04658 -0.57473,-1.4374 -0.86799,-2.16999c-0.73606,-1.85288 -1.76744,-3.60015 -1.93001,-5.78663z" fill="url(#color-6)" stroke="none" stroke-width="0.86553" stroke-linecap="round"/><path d="M226.9016,183.0031c-0.18647,-2.49548 0.38906,-5.47762 1.01749,-7.3632c0.62863,-1.88557 1.49663,-3.05274 2.45449,-3.05274c0.95786,0 2.21758,1.55458 2.45449,3.05274c0.20913,1.33989 -1.08734,2.56608 -0.96356,3.89122c0.05492,0.66807 1.00381,0.39552 1.30708,1.01266c0.40561,0.62553 0.69194,1.5702 0.67397,2.45932c-0.03758,1.84246 -0.11518,3.54663 -0.81693,4.77397c-0.78652,1.62894 -2.07216,3.04261 -3.32902,3.18265c-0.57389,0.04658 -0.57473,-1.4374 -0.86799,-2.16999c-0.73606,-1.85288 -1.76744,-3.60015 -1.93001,-5.78663z" fill="url(#color-7)" stroke="none" stroke-width="0.86553" stroke-linecap="round"/><path d="M229.79492,173.16583c-0.18647,-2.49548 0.38906,-5.47762 1.01749,-7.3632c0.62863,-1.88557 1.49663,-3.05274 2.45449,-3.05274c0.95786,0 2.21758,1.55458 2.45449,3.05274c0.20913,1.33989 -1.08734,2.56608 -0.96356,3.89122c0.05492,0.66807 1.00381,0.39552 1.30708,1.01266c0.40561,0.62553 0.69194,1.5702 0.67397,2.45932c-0.03758,1.84246 -0.11518,3.54663 -0.81693,4.77397c-0.78652,1.62894 -2.07216,3.04261 -3.32902,3.18265c-0.57389,0.04658 -0.57473,-1.4374 -0.86799,-2.16999c-0.73606,-1.85288 -1.76744,-3.60015 -1.93001,-5.78663z" fill="url(#color-8)" stroke="none" stroke-width="0.86553" stroke-linecap="round"/><path d="M226.32294,191.24905c-0.18647,-2.49548 0.38906,-5.47762 1.01749,-7.3632c0.62863,-1.88557 1.49663,-3.05274 2.45449,-3.05274c0.95786,0 2.21758,1.55458 2.45449,3.05274c0.20913,1.33989 -1.08734,2.56608 -0.96356,3.89122c0.05492,0.66807 1.00381,0.39552 1.30708,1.01266c0.40561,0.62553 0.64559,1.58554 0.67397,2.45932c0.01921,0.80752 -0.1738,1.58235 -0.45952,2.24232c-0.42051,0.97505 -1.27728,1.53548 -1.87895,2.31465c-0.6321,1.13331 -0.89027,3.10742 -1.80748,3.39965c-0.52447,0.16926 -0.57473,-1.4374 -0.86799,-2.16999c-0.73606,-1.85288 -1.76744,-3.60015 -1.93001,-5.78663z" fill="url(#color-9)" stroke="none" stroke-width="0.86553" stroke-linecap="round"/><path d="M217.47023,193.07057c-0.02963,-0.35498 -0.20236,-0.48287 -0.30985,-0.93518c-0.40472,-1.70052 -1.75164,-3.71019 -1.13166,-5.15305c1.02039,-2.36581 3.5356,-2.86852 4.9798,-4.46557c1.12356,-1.25813 1.97446,-4.02741 3.23814,-4.02741c1.26366,0 2.92558,2.05093 3.23814,4.02741c0.27591,1.76767 -1.43451,3.38535 -1.27124,5.13355c0.07248,0.88136 1.3243,0.52181 1.72442,1.33599c0.53512,0.82526 0.91287,2.07153 0.88914,3.24451c-0.04956,2.4307 -0.24732,4.49118 -1.07776,6.29817c-0.68302,1.48676 -1.833,2.97311 -2.95037,2.57653c-1.73249,-0.62446 -2.39425,-3.74378 -4.00117,-4.58049c-0.83958,-0.43894 -1.74571,2.15627 -2.45191,1.45051c-0.9142,-0.9142 -0.49713,-3.24911 -0.87569,-4.90495z" fill="url(#color-10)" stroke="none" stroke-width="1.14186" stroke-linecap="round"/><path d="M218.83981,173.70815c-0.23566,-3.15374 0.49169,-6.92252 1.28591,-9.30545c0.79445,-2.38296 1.89139,-3.858 3.10192,-3.858c1.21051,0 2.80252,1.96465 3.10192,3.858c0.2643,1.69331 -1.37415,3.24294 -1.21774,4.91765c0.06941,0.84427 1.26857,0.49982 1.65188,1.27977c0.51258,0.79054 0.87445,1.98438 0.85173,3.10803c-0.04748,2.32848 -0.14556,4.48215 -1.03242,6.03326c-0.99397,2.05862 -2.61874,3.84519 -4.20714,4.02214c-0.72527,0.05888 -0.72631,-1.81654 -1.09694,-2.74237c-0.93023,-2.34162 -2.23367,-4.5498 -2.43912,-7.31303z" fill="url(#color-11)" stroke="none" stroke-width="1.09383" stroke-linecap="round"/><path d="M223.62023,170.76438c-0.0866,-0.8515 1.33344,-0.65968 1.43986,-1.59132c0.15051,-1.34423 -1.32771,-2.8123 -0.85778,-3.90598c0.77344,-1.79328 2.67996,-2.17433 3.77465,-3.38489c0.85165,-0.95364 1.49663,-3.05274 2.45449,-3.05274c0.95786,0 2.21758,1.55458 2.45449,3.05274c0.20913,1.33989 -1.08734,2.56608 -0.96356,3.89122c0.05492,0.66807 1.00381,0.39552 1.30708,1.01266c0.40561,0.62553 0.69194,1.5702 0.67397,2.45932c-0.03758,1.84246 -0.18749,3.40427 -0.81693,4.77397c-0.51773,1.12695 -1.36897,1.8008 -2.23636,1.95299c-1.71721,0.30177 -3.65926,0.73577 -5.20797,-0.28933c-1.17639,-0.93772 -1.84015,-3.13259 -2.02194,-4.91864z" fill="url(#color-12)" stroke="none" stroke-width="0.86553" stroke-linecap="round"/><path d="M219.71426,184.55103c-0.0866,-0.8515 1.33344,-0.65968 1.43986,-1.59132c0.15051,-1.34423 -1.32771,-2.8123 -0.85778,-3.90598c0.77344,-1.79328 2.67996,-2.17433 3.77465,-3.38489c0.85165,-0.95364 1.49663,-3.05274 2.45449,-3.05274c0.95786,0 2.21758,1.55458 2.45449,3.05274c0.20913,1.33989 -1.08734,2.56608 -0.96356,3.89122c0.05492,0.66807 1.00381,0.39552 1.30708,1.01266c0.40561,0.62553 0.69194,1.5702 0.67397,2.45932c-0.03758,1.84246 -0.18749,3.40427 -0.81693,4.77397c-0.51773,1.12695 -1.36897,1.8008 -2.23636,1.95299c-1.71721,0.30177 -3.65926,0.73577 -5.20797,-0.28933c-1.17639,-0.93772 -1.84015,-3.13259 -2.02194,-4.91864z" fill="url(#color-13)" stroke="none" stroke-width="0.86553" stroke-linecap="round"/><path d="M239.03345,173.9739c-0.03073,-1.08233 0.1712,-1.98236 0.42352,-2.75901c1.59882,-4.15871 2.22722,-3.0795 2.64895,-2.50043c0.24107,0.49994 -0.56012,1.82548 -0.49956,2.77943c0.02775,0.48278 0.71746,0.2352 0.67764,0.72333c-0.09435,1.02299 -1.04324,1.48881 -1.14353,2.61431c-0.08628,1.03789 0.74277,1.88644 0.62999,2.89332c-0.16136,1.00771 -0.73629,1.96456 -1.28645,1.93233c-0.44323,-0.02749 -0.53162,-1.32306 -0.81528,-2.077c-0.20479,-1.15958 -0.59793,-2.3378 -0.63529,-3.60629z" fill="url(#color-14)" stroke="none" stroke-width="0.56751" stroke-linecap="round"/><path d="M213.38947,188.52728c-0.04233,-1.08233 0.23586,-1.98236 0.58352,-2.75901c2.2028,-4.15871 3.06859,-3.0795 3.64966,-2.50043c0.33215,0.49994 -0.77171,1.82548 -0.68826,2.77943c0.03822,0.48278 0.98847,0.2352 0.93362,0.72333c-0.12997,1.02299 -1.43737,1.48881 -1.5755,2.61431c-0.11892,1.03789 1.02334,1.88644 0.86799,2.89332c-0.22232,1.00771 -1.01445,1.96456 -1.77247,1.93233c-0.61066,-0.02749 -0.73247,-1.32306 -1.12327,-2.077c-0.28216,-1.15958 -0.82381,-2.3378 -0.87529,-3.60629z" fill="url(#color-15)" stroke="none" stroke-width="0.61824" stroke-linecap="round"/></g></g></svg>